<?xml version="1.0" encoding="UTF-8" standalone="no"?>
<!-- Created with Inkscape (http://www.inkscape.org/) -->
<svg
   xmlns:dc="http://purl.org/dc/elements/1.1/"
   xmlns:cc="http://web.resource.org/cc/"
   xmlns:rdf="http://www.w3.org/1999/02/22-rdf-syntax-ns#"
   xmlns:svg="http://www.w3.org/2000/svg"
   xmlns="http://www.w3.org/2000/svg"
   xmlns:sodipodi="http://sodipodi.sourceforge.net/DTD/sodipodi-0.dtd"
   xmlns:inkscape="http://www.inkscape.org/namespaces/inkscape"
   width="90mm"
   height="50mm"
   id="svg2160"
   sodipodi:version="0.32"
   inkscape:version="0.45.1"
   sodipodi:docbase="/home/vokimon/CajitasDeArena/wiko"
   sodipodi:docname="wikologo.svg"
   inkscape:output_extension="org.inkscape.output.svg.inkscape"
   inkscape:export-filename="/home/vokimon/CajitasDeArena/wiko/wikologo.png"
   inkscape:export-xdpi="90"
   inkscape:export-ydpi="90">
  <defs
     id="defs3" />
  <sodipodi:namedview
     id="base"
     pagecolor="#ffffff"
     bordercolor="#666666"
     borderopacity="1.0"
     inkscape:pageopacity="0.0"
     inkscape:pageshadow="2"
     inkscape:zoom="0.70710678"
     inkscape:cx="151.66667"
     inkscape:cy="67.859426"
     inkscape:document-units="mm"
     inkscape:current-layer="layer1"
     inkscape:window-width="1280"
     inkscape:window-height="954"
     inkscape:window-x="0"
     inkscape:window-y="0" />
  <metadata
     id="metadata2164">
    <rdf:RDF>
      <cc:Work
         rdf:about="">
        <dc:format>image/svg+xml</dc:format>
        <dc:type
           rdf:resource="http://purl.org/dc/dcmitype/StillImage" />
      </cc:Work>
    </rdf:RDF>
  </metadata>
  <g
     inkscape:label="Layer 1"
     inkscape:groupmode="layer"
     id="layer1">
    <path
       style="fill:#d38d5f;fill-opacity:1;fill-rule:evenodd;stroke:#000000;stroke-width:0.2858048pt;stroke-linecap:butt;stroke-linejoin:miter;stroke-opacity:1"
       d="M 43.355711,50.498543 C 47.166441,58.834516 60.598669,117.72578 68.125461,130.52389 C 71.459849,139.09804 79.08131,139.09804 82.415697,137.19267 C 87.979847,134.01316 95.753259,114.32829 95.753259,114.32829 C 95.753259,114.32829 101.41889,128.41308 106.23276,131.95291 C 110.758,134.81096 115.36103,135.62004 122.66654,127.66585 C 129.89386,123.15537 149.81801,38.351838 149.81801,38.351838 L 133.62239,35.017449 C 133.62239,35.017449 120.54075,107.73934 116.19463,114.79239 C 114.03623,119.58895 110.81687,126.62508 101.9335,109.58584 C 100.08291,105.15224 99.787064,103.14397 103.37471,90.034875 C 107.36575,84.141025 93.18744,82.29466 89.958661,87.071274 C 85.555817,106.83021 78.808228,120.88551 75.198178,109.4559 C 68.199244,92.437526 58.598633,40.019032 58.598633,40.019032 L 43.355711,50.498543 z "
       id="path3198"
       sodipodi:nodetypes="ccccccccccccccc" />
    <path
       style="fill:#000000;fill-opacity:1;fill-rule:nonzero;stroke:none;stroke-width:1pt;stroke-linecap:butt;stroke-linejoin:miter;stroke-opacity:1"
       d="M 137.89907,102.07045 C 139.50093,106.72335 138.98437,112.51239 140.04906,117.85166 C 140.51227,119.95893 141.3778,121.95541 142.0406,123.99584 C 142.46986,126.01274 147.34854,127.77484 148.05471,129.13025 C 145.51642,134.61936 142.97812,140.31349 140.43981,145.80259 C 136.96111,143.97202 131.42499,140.72613 129.1882,137.48214 C 126.65887,134.43851 125.66404,130.54291 124.3099,126.90877 C 122.81297,122.40696 121.2114,117.64424 121.20093,112.90733 C 121.25338,106.94775 120.00896,100.97226 122.89831,95.623767 C 123.35704,94.29661 126.30532,94.41242 127.82618,95.384135 C 133.44642,97.69228 136.56589,98.333253 137.89907,102.07045 z "
       id="path2181"
       sodipodi:nodetypes="ccccccccccc" />
    <path
       style="fill:#000000;fill-opacity:1;fill-rule:nonzero;stroke:none;stroke-width:1pt;stroke-linecap:butt;stroke-linejoin:miter;stroke-opacity:1"
       d="M 174.29661,23.33852 C 173.84935,29.255024 173.79584,35.204106 173.32963,41.125677 C 173.14831,50.578734 172.85224,60.059366 171.16697,69.387091 C 168.92436,81.549937 167.42533,93.828499 165.72678,106.07311 C 164.42752,113.89321 162.55807,121.60088 160.91064,129.35077 C 154.99456,130.13423 149.07848,130.91769 143.1624,131.70115 C 145.52147,122.41267 147.70928,113.06933 149.57888,103.67009 C 151.6935,89.879317 154.27774,76.146942 155.74289,62.265939 C 156.61241,53.054517 155.96407,43.792066 156.59461,34.569054 C 157.13512,32.388032 154.78276,28.490254 158.17719,28.39004 C 163.55033,26.7062 168.92347,25.02236 174.29661,23.33852 z "
       id="path2185" />
    <path
       style="fill:#000000;fill-opacity:1;fill-rule:nonzero;stroke:none;stroke-width:1pt;stroke-linecap:butt;stroke-linejoin:miter;stroke-opacity:1"
       d="M 212.05625,40.860103 C 210.34021,41.247831 208.53836,45.969237 210.28166,42.427946 C 211.13325,40.841978 212.18236,39.213822 210.72802,41.776717 C 204.21318,53.505146 195.26344,63.590189 187.60991,74.549549 C 181.7476,82.243191 175.84037,89.907371 170.43961,97.938194 C 169.73157,98.710107 169.1707,96.239424 168.52746,95.583444 C 166.16568,91.478957 163.80389,87.374478 161.4421,83.269999 C 172.0186,68.930816 183.2102,55.027661 192.96329,40.096337 C 193.78275,39.013833 196.8666,33.949695 194.71908,37.364977 C 193.23002,39.833745 195.95178,35.09915 196.46545,34.210943 C 198.07161,31.328961 199.68509,28.459535 201.8238,25.935513 C 202.1926,23.345235 202.89559,26.211503 203.69021,27.089591 C 206.47889,31.679762 209.26756,36.269932 212.05625,40.860103 z "
       id="path2187" />
    <path
       style="fill:#000000;fill-opacity:1;fill-rule:nonzero;stroke:none;stroke-width:1pt;stroke-linecap:butt;stroke-linejoin:miter;stroke-opacity:1"
       d="M 180.03367,82.341905 C 179.26171,84.950393 180.1851,87.602481 180.67173,90.187031 C 182.66198,97.699563 183.78693,105.40671 185.23708,113.0343 C 186.27661,116.36975 187.6453,120.20864 188.61111,124.28919 C 189.45372,126.18668 192.42268,133.16638 192.90581,135.02603 C 187.81888,138.29473 177.51308,135.47474 172.42615,138.74343 C 170.44607,133.15442 170.59871,129.26728 169.19595,123.46098 C 168.36546,119.59338 168.02818,115.63177 167.19449,111.75899 C 166.16094,105.81304 164.89601,99.902166 163.20706,94.109192 C 162.78456,92.106981 161.90959,89.888747 162.05906,87.974808 C 168.0506,86.097174 174.04214,84.219539 180.03367,82.341905 z "
       id="path2189"
       sodipodi:nodetypes="ccccccccccc" />
    <path
       sodipodi:type="arc"
       style="opacity:1;color:#000000;fill:#ffa9a9;fill-opacity:1;fill-rule:nonzero;stroke:#ac0000;stroke-width:1;stroke-linecap:round;stroke-linejoin:round;marker:none;marker-start:none;marker-mid:none;marker-end:none;stroke-miterlimit:4;stroke-dasharray:none;stroke-dashoffset:0;stroke-opacity:1;visibility:visible;display:inline;overflow:visible"
       id="path2195"
       sodipodi:cx="97.916664"
       sodipodi:cy="107.9987"
       sodipodi:rx="11.25"
       sodipodi:ry="10.833333"
       d="M 109.16666 107.9987 A 11.25 10.833333 0 1 1  86.666664,107.9987 A 11.25 10.833333 0 1 1  109.16666 107.9987 z"
       transform="matrix(1.1432192,0,0,1.1432192,23.318904,-46.022707)" />
    <path
       sodipodi:type="arc"
       style="opacity:1;color:#000000;fill:#ffa9a9;fill-opacity:1;fill-rule:nonzero;stroke:#ac0000;stroke-width:1;stroke-linecap:round;stroke-linejoin:round;marker:none;marker-start:none;marker-mid:none;marker-end:none;stroke-miterlimit:4;stroke-dasharray:none;stroke-dashoffset:0;stroke-opacity:1;visibility:visible;display:inline;overflow:visible"
       id="path2207"
       sodipodi:cx="171.66667"
       sodipodi:cy="134.24869"
       sodipodi:rx="18.333334"
       sodipodi:ry="27.916666"
       d="M 190.00001 134.24869 A 18.333334 27.916666 0 1 1  153.33334,134.24869 A 18.333334 27.916666 0 1 1  190.00001 134.24869 z"
       transform="matrix(1.1432192,0,0,1.1432192,12.839395,-47.928072)" />
    <path
       sodipodi:type="arc"
       style="opacity:1;color:#000000;fill:#7b0000;fill-opacity:1;fill-rule:nonzero;stroke:#ac0000;stroke-width:1;stroke-linecap:round;stroke-linejoin:round;marker:none;marker-start:none;marker-mid:none;marker-end:none;stroke-miterlimit:4;stroke-dasharray:none;stroke-dashoffset:0;stroke-opacity:1;visibility:visible;display:inline;overflow:visible"
       id="path2209"
       sodipodi:cx="170.83333"
       sodipodi:cy="128.83203"
       sodipodi:rx="11.666667"
       sodipodi:ry="16.666666"
       d="M 182.5 128.83203 A 11.666667 16.666666 0 1 1  159.16666,128.83203 A 11.666667 16.666666 0 1 1  182.5 128.83203 z"
       transform="matrix(1.1432192,0,0,1.1432192,13.792078,-46.022707)" />
  </g>
</svg>
